/* XPM */
static char *result[] = {
/* columns rows colors chars-per-pixel */
"64 64 256 2 ",
"   c black",
".  c #010101",
"X  c #020202",
"o  c gray1",
"O  c #040404",
"+  c gray2",
"@  c #060606",
"#  c #070707",
"$  c gray3",
"%  c #090909",
"&  c gray4",
"*  c #0B0B0B",
"=  c #0C0C0C",
"-  c gray5",
";  c #0E0E0E",
":  c gray6",
">  c #101010",
",  c #111111",
"<  c gray7",
"1  c #131313",
"2  c gray8",
"3  c #151515",
"4  c #161616",
"5  c gray9",
"6  c #181818",
"7  c #191919",
"8  c gray10",
"9  c #1B1B1B",
"0  c gray11",
"q  c #1D1D1D",
"w  c #1E1E1E",
"e  c gray12",
"r  c #202020",
"t  c gray13",
"y  c #222222",
"u  c #232323",
"i  c gray14",
"p  c #252525",
"a  c gray15",
"s  c #272727",
"d  c #282828",
"f  c gray16",
"g  c #2A2A2A",
"h  c gray17",
"j  c #2C2C2C",
"k  c #2D2D2D",
"l  c gray18",
"z  c #2F2F2F",
"x  c gray19",
"c  c #313131",
"v  c #323232",
"b  c gray20",
"n  c #343434",
"m  c #353535",
"M  c gray21",
"N  c #373737",
"B  c gray22",
"V  c #393939",
"C  c #3A3A3A",
"Z  c gray23",
"A  c #3C3C3C",
"S  c gray24",
"D  c #3E3E3E",
"F  c #3F3F3F",
"G  c gray25",
"H  c #414141",
"J  c gray26",
"K  c #434343",
"L  c #444444",
"P  c gray27",
"I  c #464646",
"U  c gray28",
"Y  c #484848",
"T  c #494949",
"R  c gray29",
"E  c #4B4B4B",
"W  c #4C4C4C",
"Q  c gray30",
"!  c #4E4E4E",
"~  c gray31",
"^  c #505050",
"/  c #515151",
"(  c gray32",
")  c #535353",
"_  c gray33",
"`  c #555555",
"'  c #565656",
"]  c gray34",
"[  c #585858",
"{  c gray35",
"}  c #5A5A5A",
"|  c #5B5B5B",
" . c gray36",
".. c #5D5D5D",
"X. c gray37",
"o. c #5F5F5F",
"O. c #606060",
"+. c gray38",
"@. c #626262",
"#. c gray39",
"$. c #646464",
"%. c #656565",
"&. c gray40",
"*. c #676767",
"=. c #686868",
"-. c DimGray",
";. c #6A6A6A",
":. c gray42",
">. c #6C6C6C",
",. c #6D6D6D",
"<. c gray43",
"1. c #6F6F6F",
"2. c gray44",
"3. c #717171",
"4. c #727272",
"5. c gray45",
"6. c #747474",
"7. c gray46",
"8. c #767676",
"9. c #777777",
"0. c gray47",
"q. c #797979",
"w. c gray48",
"e. c #7B7B7B",
"r. c #7C7C7C",
"t. c gray49",
"y. c #7E7E7E",
"u. c gray50",
"i. c #808080",
"p. c #818181",
"a. c gray51",
"s. c #838383",
"d. c #848484",
"f. c gray52",
"g. c #868686",
"h. c gray53",
"j. c #888888",
"k. c #898989",
"l. c gray54",
"z. c #8B8B8B",
"x. c gray55",
"c. c #8D8D8D",
"v. c #8E8E8E",
"b. c gray56",
"n. c #909090",
"m. c gray57",
"M. c #929292",
"N. c #939393",
"B. c gray58",
"V. c #959595",
"C. c gray59",
"Z. c #979797",
"A. c #989898",
"S. c gray60",
"D. c #9A9A9A",
"F. c #9B9B9B",
"G. c gray61",
"H. c #9D9D9D",
"J. c gray62",
"K. c #9F9F9F",
"L. c #A0A0A0",
"P. c gray63",
"I. c #A2A2A2",
"U. c gray64",
"Y. c #A4A4A4",
"T. c #A5A5A5",
"R. c gray65",
"E. c #A7A7A7",
"W. c gray66",
"Q. c #A9A9A9",
"!. c #AAAAAA",
"~. c gray67",
"^. c #ACACAC",
"/. c gray68",
"(. c #AEAEAE",
"). c #AFAFAF",
"_. c gray69",
"`. c #B1B1B1",
"'. c #B2B2B2",
"]. c gray70",
"[. c #B4B4B4",
"{. c gray71",
"}. c #B6B6B6",
"|. c #B7B7B7",
" X c gray72",
".X c #B9B9B9",
"XX c gray73",
"oX c #BBBBBB",
"OX c #BCBCBC",
"+X c gray74",
"@X c gray",
"#X c gray75",
"$X c #C0C0C0",
"%X c #C1C1C1",
"&X c gray76",
"*X c #C3C3C3",
"=X c gray77",
"-X c #C5C5C5",
";X c #C6C6C6",
":X c gray78",
">X c #C8C8C8",
",X c gray79",
"<X c #CACACA",
"1X c #CBCBCB",
"2X c gray80",
"3X c #CDCDCD",
"4X c #CECECE",
"5X c gray81",
"6X c #D0D0D0",
"7X c gray82",
"8X c #D2D2D2",
"9X c LightGray",
"0X c gray83",
"qX c #D5D5D5",
"wX c gray84",
"eX c #D7D7D7",
"rX c #D8D8D8",
"tX c gray85",
"yX c #DADADA",
"uX c gray86",
"iX c gainsboro",
"pX c #DDDDDD",
"aX c gray87",
"sX c #DFDFDF",
"dX c gray88",
"fX c #E1E1E1",
"gX c #E2E2E2",
"hX c gray89",
"jX c #E4E4E4",
"kX c gray90",
"lX c #E6E6E6",
"zX c #E7E7E7",
"xX c gray91",
"cX c #E9E9E9",
"vX c #EAEAEA",
"bX c gray92",
"nX c #ECECEC",
"mX c gray93",
"MX c #EEEEEE",
"NX c #EFEFEF",
"BX c gray94",
"VX c #F1F1F1",
"CX c gray95",
"ZX c #F3F3F3",
"AX c #F4F4F4",
"SX c gray96",
"DX c #F6F6F6",
"FX c gray97",
"GX c #F8F8F8",
"HX c #F9F9F9",
"JX c gray98",
"KX c #FBFBFB",
"LX c gray99",
"PX c #FDFDFD",
"IX c #FEFEFE",
"UX c white",
/* pixels */
"B.B.N.Z.$X=X=X$XC.M.N.M.h.g.g.g.g.g.g.h.v.b.b.v.i.u.u.i.z.x.x.c.H.J.J.J.C.C.C.V.z.l.l.l.h.h.h.h.k.k.k.z.T.E.W.Y.5.1.2.4.z.c.c.c.",
"B.B.N.Z.$X=X=X$XC.M.N.M.h.g.g.g.g.g.g.h.v.b.b.v.i.u.u.i.z.x.x.c.H.J.J.J.C.C.C.V.z.l.l.l.h.h.h.h.k.k.k.z.T.E.W.Y.5.1.2.4.z.c.c.c.",
"B.B.N.Z.%X-X-X%XC.M.N.M.h.g.g.g.g.g.g.h.v.b.b.v.i.u.u.i.z.x.x.c.J.K.K.J.Z.C.C.V.z.l.l.l.h.h.h.h.j.j.h.l.T.E.W.Y.5.1.2.4.z.c.c.c.",
"B.B.N.Z.+X%X%X+XZ.N.B.N.j.h.h.h.h.h.h.h.v.v.v.c.a.p.p.a.l.z.z.x.F.G.G.G.Z.Z.Z.C.c.x.x.x.j.j.j.j.x.x.x.c.Y.T.R.I.6.2.3.5.z.c.c.c.",
"V.V.V.V.b.b.b.n.J.K.K.J.Z.C.C.C.A.A.A.Z.a.p.p.a.C.Z.Z.C.d.s.s.s.p.p.i.s.R.Q.W.W.Y.Y.Y.U.N.M.m.V.+X%X%X+Xm.c.v.v.g.g.g.g.z.z.z.z.",
"V.V.V.B.x.z.z.x.K.L.L.K.A.Z.Z.Z.S.S.S.A.p.i.i.p.A.S.S.A.s.a.a.a.u.u.y.p.E.!.Q.Q.R.R.R.T.B.N.M.C.%X-X-X%Xv.l.z.z.h.h.h.h.z.z.z.z.",
"V.V.V.B.c.x.x.c.L.P.P.L.A.Z.Z.Z.S.S.S.A.p.i.i.p.A.S.S.A.s.a.a.a.u.u.y.p.E.!.Q.Q.R.R.R.T.B.N.M.C.%X-X-X%Xb.z.x.x.h.h.h.h.l.l.l.l.",
"C.C.C.V.c.x.x.c.H.J.J.J.C.C.C.C.A.A.A.Z.p.i.i.p.Z.A.A.Z.d.s.s.s.i.i.u.a.R.Q.W.W.R.R.R.T.C.V.B.Z.+X#X$XOXv.l.z.z.h.h.h.h.v.v.v.v.",
"I.I.I.P.v.c.c.x.i.u.u.u.f.f.f.f.l.l.l.l.j.j.j.k.n.m.m.m.b.b.b.b.N.N.N.B.K.L.L.L.W.W.W.W.~.~.^.Q.c.l.z.l.q.0.0.0.i.i.u.s._.[.].].",
"U.U.U.I.v.c.c.x.t.r.r.r.d.d.d.d.k.k.k.k.j.j.j.j.n.n.n.n.n.n.n.n.B.B.B.V.J.K.K.L.E.W.W.W././.(.~.j.f.g.f.0.9.9.0.u.i.u.s.].|.}.}.",
"Y.Y.Y.U.v.c.c.x.y.t.t.t.d.d.d.d.k.k.k.k.j.j.j.j.n.n.n.n.n.n.n.n.B.B.B.V.J.K.K.L.E.W.W.W././.(.~.k.g.h.g.0.9.9.9.u.u.y.a.[. X|.|.",
"L.L.L.K.v.c.c.x.u.y.y.y.f.f.f.f.k.k.k.k.k.k.k.k.b.b.b.b.n.n.n.n.N.N.N.B.G.H.H.J.T.R.R.R.^.^./.!.k.g.h.g.q.0.0.q.p.a.p.f._.[.].].",
"q.q.q.w.d.f.f.f.k.k.k.l.V.C.C.C.m.m.m.m.A.A.A.C.i.y.y.u.m.M.M.m.p.i.i.i.f.f.f.g.v.b.b.n.Z.A.A.Z.n.b.b.b.l.l.l.x.U.T.T.U.a.u.i.i.",
"7.7.7.8.d.f.f.f.l.l.l.z.C.Z.Z.Z.m.m.m.m.S.S.S.Z.u.t.t.y.m.M.M.m.i.u.u.u.a.a.a.s.x.c.c.v.C.Z.Z.Z.b.b.b.b.z.z.z.c.R.W.Q.T.u.e.r.r.",
"7.7.7.8.d.f.f.f.k.k.k.l.C.Z.Z.Z.m.m.m.m.S.S.S.Z.u.t.t.y.m.M.M.m.u.y.y.y.s.s.s.d.x.c.c.v.C.Z.Z.Z.b.b.b.b.z.z.z.c.T.E.W.T.u.r.t.t.",
"q.q.q.w.d.f.f.f.x.x.x.c.V.C.C.C.N.N.N.N.D.D.D.A.i.y.y.u.N.B.B.N.s.a.a.a.a.a.a.s.z.x.x.c.Z.A.A.A.m.m.m.m.l.l.l.x.U.T.R.U.i.t.y.y.",
"K.K.K.H.f.s.a.f.Q.~.~.Q.g.d.d.g.W.~.!.!././.(.~.k.h.h.k.W.~.!.~.}.|. X].w.7.8.9.i.p.i.s.Y.E.R.R.Q.Q.!.E.p.y.u.i.k.l.l.l.x.x.x.x.",
"U.U.Y.P.f.s.a.f.~.(.(.~.f.a.s.f.!./.^.^.(.(.).^.l.j.j.l.!./.^./.XXoXOX|.q.6.7.8.u.i.u.a.T.W.E.E.~.~.^.W.p.t.y.u.h.j.j.j.c.c.c.c.",
"I.I.U.L.f.s.a.g.~.).).~.g.a.a.f.~.(././.(.(.).^.l.j.j.l.!./.^./.XXoXOX|.q.6.7.8.u.i.u.a.R.Q.W.W.^.^./.Q.p.t.y.u.h.j.j.j.c.c.c.c.",
"P.P.P.K.g.d.d.g.W.!.!.W.h.f.f.h.E.!.Q.Q././.(.~.z.k.k.z.Q.^.~.^.}.|. X].e.8.9.0.u.i.u.a.U.R.T.T.W.W.Q.R.p.y.u.i.h.j.j.j.c.c.c.c.",
"D.D.D.D.Z.Z.Z.V.t.e.w.t.I.T.Y.I.g.d.d.f.C.Z.Z.Z.B.B.B.B.G.G.G.F.z.l.l.z.M.N.N.M.k.j.j.j.f.f.f.d.r.e.e.r.g.h.h.h.v.v.v.v.B.B.B.B.",
"S.S.S.S.A.A.S.C.q.9.8.w.U.E.R.Y.a.u.i.p.V.C.C.C.V.V.V.V.F.F.F.D.h.g.g.h.B.V.V.B.k.j.j.j.s.s.s.a.0.9.9.0.h.j.j.j.v.v.v.v.B.B.B.B.",
"S.S.S.S.A.A.S.C.q.9.8.w.U.E.R.Y.s.i.p.a.V.C.C.C.V.V.V.V.G.G.G.F.j.h.h.j.B.V.V.B.j.h.h.h.a.a.a.p.q.0.0.q.g.h.h.h.v.v.v.v.B.B.B.B.",
"Z.Z.Z.Z.A.A.A.C.t.e.w.t.U.R.T.U.d.a.a.s.B.V.V.V.B.B.B.B.S.S.S.A.j.h.h.j.N.B.B.N.x.z.z.z.f.f.f.d.w.q.q.w.k.l.l.l.b.b.b.b.B.B.B.B.",
"i.i.i.a.D.G.G.G.I.I.I.P.M.m.m.m.m.m.m.n.f.d.d.d.z.z.z.l.a.p.p.p.d.d.d.d.j.j.h.l._.].'.'.!.!.!.W.M.n.n.m.Y.T.T.Y.Z.C.C.C.b.b.b.b.",
"y.y.y.i.D.H.G.H.T.R.R.T.m.n.n.n.M.M.M.m.d.s.s.s.l.l.l.k.i.u.u.u.d.d.d.d.h.h.g.l.].|.}.{./.^.^.!.N.m.m.M.R.E.E.R.A.Z.Z.Z.b.b.b.b.",
"y.y.y.i.D.H.G.H.Y.T.T.Y.m.n.n.n.M.M.M.m.d.s.s.s.l.l.l.k.i.u.u.u.d.d.d.d.g.g.f.k.].|.}.{.(././.~.N.m.m.M.R.E.E.R.A.Z.Z.Z.b.b.b.b.",
"u.u.u.p.S.F.F.G.Y.T.T.Y.m.n.n.n.M.M.M.m.d.s.s.d.z.x.x.z.i.u.u.u.f.f.f.f.k.k.j.z._.].'.`.!.Q.Q.W.M.m.m.M.R.E.E.R.Z.C.C.C.m.m.m.m.",
"v.v.v.v.j.j.j.k.G.H.H.G.x.z.z.z.n.n.n.b.t.r.e.y.L.I.I.L.g.d.d.f.V.C.C.Z.!.~.~.Q.x.k.l.l.d.d.d.f.v.b.b.n.K.L.L.J.a.i.u.a.T.W.E.E.",
"b.b.b.b.h.h.h.j.G.H.H.G.x.z.z.z.n.n.n.b.t.r.e.y.I.T.Y.I.g.d.d.f.C.Z.Z.A./.(.).^.j.f.g.g.i.i.i.p.v.b.b.n.K.L.L.J.p.u.y.p.E.!.Q.Q.",
"b.b.b.b.h.h.h.j.G.H.H.G.x.z.z.z.n.n.n.b.t.r.e.y.I.T.Y.I.g.d.d.f.V.C.C.Z.^./.(.~.k.g.h.h.p.p.p.a.v.b.b.n.K.L.L.J.p.u.y.a.E.~.!.!.",
"n.n.n.n.j.j.j.k.H.J.J.H.v.c.c.c.M.M.M.m.t.r.e.y.U.R.T.U.h.f.f.g.A.S.S.D.^./.(.~.k.g.h.h.a.a.a.s.c.v.v.b.J.K.K.H.s.p.p.s.Y.E.R.R.",
"R.R.R.T.F.D.D.G.].{.{.[.Q.W.W.W.!.!.~.W.s.p.i.d.Q./.^.~.G.F.F.G._.`.`.`.!.!.~.W.d.p.a.s.n.m.m.n.h.g.g.h.N.B.B.B.G.G.G.D.s.p.p.p.",
"E.E.E.R.G.F.F.H.[.}.}.{.~.!.!.!.^.^./.Q.d.i.i.d.!.(./.^.H.G.G.H.'.].].'.~.!.~.W.d.p.a.s.m.M.M.m.g.f.f.g.M.N.N.B.H.J.J.G.u.r.t.t.",
"E.E.E.R.G.F.F.H.[.}.}.{.~.!.!.!.^.^./.Q.d.i.i.d.!.(./.^.H.G.G.H.].[.[.].~.!.~.W.d.p.a.s.m.M.M.m.g.f.f.g.M.N.N.B.H.J.J.G.i.t.y.y.",
"R.R.R.T.F.D.D.G.[.}.}.{.Q.W.W.W.!.!.~.W.d.a.p.f.!.(./.^.F.D.D.F.)._._._.Q.Q.!.E.f.a.s.d.M.N.N.M.h.g.g.h.B.V.V.V.H.H.H.F.i.t.y.y.",
"A.A.A.Z.d.s.a.g.[. X|.{.m.v.b.b.v.v.v.b.C.Z.Z.A.Q.!.~.W.d.p.a.a.l.l.l.l.M.M.M.M.m.m.m.M.E.W.W.R.b.c.c.b.).`.`.).M.b.n.b.a.p.p.p.",
"Z.Z.Z.C.s.a.p.f.[. X|.{.b.x.c.c.z.z.z.x.Z.A.A.S.Q.!.~.W.a.u.i.i.h.h.h.j.b.n.n.n.M.M.M.N.W.Q.Q.E.n.v.v.n.`.].].`.m.v.b.v.a.p.p.p.",
"Z.Z.Z.C.s.a.p.f.{..X X{.n.x.c.c.x.x.x.c.C.Z.Z.A.Q.!.~.W.a.u.i.i.g.g.g.h.n.m.m.m.M.M.M.N.Q.!.!.W.n.v.c.n.'.[.[.'.m.v.b.v.a.p.p.p.",
"Z.Z.Z.C.f.d.s.h.'.}.{.].n.c.v.v.z.z.z.x.S.D.D.F.E.W.Q.R.s.i.p.a.k.l.l.l.n.n.n.n.N.N.N.B.R.E.E.R.b.v.v.n.(._._.(.m.v.b.v.s.a.a.a.",
"F.F.F.F.G.G.G.G.S.S.S.D.U.Y.Y.I.f.s.a.g.`.{.[.'.M.b.n.n.M.M.m.V.XX+X@X.Xy.q.w.t.U.E.R.Y.h.f.f.g.v.b.b.b.z.z.z.x.C.Z.Z.C.b.v.v.v.",
"F.F.F.F.K.K.K.J.Z.C.C.Z.Y.T.R.U.d.a.p.f.].|.}.[.n.c.v.v.N.N.M.C.@X%X&X+Xt.0.q.r.Y.W.E.T.d.p.a.s.v.b.b.b.h.h.h.j.C.Z.Z.Z.b.b.b.b.",
"F.F.F.F.J.J.J.J.Z.Z.Z.A.Y.T.R.U.d.a.p.f.[. X|.{.n.c.v.v.N.N.M.C.+X$X%XOXt.0.q.r.Y.W.E.T.f.a.s.d.c.v.v.v.j.j.j.k.C.Z.Z.Z.b.b.b.b.",
"D.D.D.D.K.K.K.J.Z.C.C.Z.Y.T.T.U.f.s.a.g._.[.].`.n.c.v.v.M.M.m.V.oX@X#XXXy.q.w.t.I.R.T.U.f.s.s.d.n.m.m.n.j.h.h.j.B.V.V.V.b.b.b.b.",
"f.f.d.h.!.^.^.!.k.h.h.k.P.U.U.I.Z.C.C.V.j.h.h.j.m.M.M.M.l.l.l.z.A.S.S.S.m.m.m.m.v.v.v.c.r.e.w.y.(.'.'.(.s.u.i.i.u.u.u.i.k.l.l.l.",
"d.d.s.g.~.(./.~.j.f.g.j.P.U.U.I.A.Z.Z.C.d.s.s.d.m.M.M.m.l.k.k.l.V.C.C.C.M.M.M.M.x.x.x.z.r.e.w.y.`.{.{.`.a.y.u.u.t.t.t.y.k.l.l.l.",
"s.s.a.f.~.(./.~.j.f.g.j.P.U.U.I.A.Z.Z.C.f.d.d.f.m.M.M.m.l.k.k.l.C.Z.Z.Z.M.M.M.M.x.x.x.z.r.e.w.y._.[.[._.p.t.y.y.t.t.t.y.k.l.l.l.",
"h.h.g.k.!.^.^.!.j.f.g.j.L.I.I.P.A.Z.Z.C.g.f.f.g.n.m.m.n.k.j.j.k.V.C.C.C.M.M.M.M.x.x.x.z.r.e.w.y.).].].).d.i.p.p.t.t.t.y.l.z.z.z.",
"|.|. X{.D.Z.S.Z.a.p.p.a.l.z.z.x.A.S.S.A.m.n.n.b.h.g.g.f.r.e.e.r.l.z.z.z.m.m.m.m.l.l.l.k.y.t.r.u.J.P.L.L.U.U.Y.P.e.0.q.e.B.C.C.C.",
"oXoXOX.XS.C.A.C.a.p.p.a.k.l.l.z.A.S.S.S.m.m.m.n.g.f.f.d.e.w.w.e.k.l.l.l.m.m.m.m.l.l.l.k.y.t.t.u.H.L.K.K.T.T.R.I.r.0.q.e.V.Z.Z.Z.",
"oXoXOX.XS.C.A.C.a.p.p.a.k.l.l.z.A.S.S.S.m.m.m.n.g.f.f.d.w.q.q.w.k.l.l.l.m.m.m.m.l.l.l.k.y.t.t.u.H.L.K.K.T.T.R.I.e.9.0.w.V.A.Z.Z.",
"|.|. X{.D.Z.S.Z.p.i.i.p.k.l.l.z.C.Z.Z.Z.m.m.m.n.g.f.f.f.y.y.y.u.l.z.z.z.m.m.m.m.x.x.x.z.i.u.u.p.H.L.K.K.U.U.Y.P.y.e.r.y.C.A.A.A.",
"d.d.s.g.T.E.W.Y.w.8.9.q.n.M.M.m.i.u.u.p.Z.S.S.A.a.p.i.f.oX$X#X+XI.K.L.K.B.N.N.B.T.R.R.T.D.S.S.S.L.L.L.K.z.l.l.x.U.T.T.T././././.",
"i.i.u.a.R.W.Q.T.q.7.8.0.n.M.M.m.y.t.t.u.Z.S.S.A.a.p.i.f.$X-X=X&XU.L.P.L.B.N.N.B.E.W.W.E.G.F.F.F.L.L.L.K.k.j.j.l.E.!.Q.Q.(.(.(.(.",
"p.p.i.s.R.W.Q.T.0.6.7.9.n.M.M.m.t.r.r.y.Z.S.S.A.a.p.i.f.#X=X*X%XU.L.P.L.B.N.N.B.E.W.W.E.G.F.F.F.L.L.L.K.k.j.j.l.R.Q.W.W.).).).).",
"s.s.a.f.R.W.Q.T.t.q.w.e.n.m.m.n.p.i.i.a.A.D.D.S.s.a.p.g.OX%X$X@XP.J.K.J.B.N.N.B.R.E.E.R.F.D.D.D.P.P.P.L.l.k.k.z.Y.R.R.R.~.~.~.~.",
"P.P.P.P.P.P.P.U.XXOX+X Xi.e.e.u./.`._._.!.!.!.Q.B.N.N.N.C.C.C.V.p.i.i.p.B.V.V.V.C.C.C.V.k.j.j.l.R.W.W.E.H.G.G.F.v.c.c.x.t.r.r.r.",
"U.U.U.U.P.P.L.U.#X%X&X+Xu.w.w.y.`.{.[.].^.~.~.!.V.B.B.B.M.M.M.m.y.t.t.y.B.V.V.V.V.V.V.B.j.h.h.k.E.!.Q.W.J.H.H.G.x.z.z.l.q.0.0.0.",
"U.U.U.U.P.P.L.U.#X%X&X+Xu.w.w.y._.[.].].~.~.~.!.V.B.B.B.N.N.N.M.u.y.y.u.N.B.B.B.V.V.V.B.j.h.g.k.W.~.!.Q.J.H.H.G.x.z.z.l.w.q.q.q.",
"P.P.P.P.L.L.L.I.oX+X@X.Xi.e.e.u.).].'.'.!.!.!.Q.V.B.B.B.N.N.N.M.i.u.u.i.C.Z.Z.Z.B.B.B.N.l.k.k.z.T.E.E.R.H.G.G.F.x.z.z.l.r.e.e.e.",
"h.h.h.j.C.Z.Z.C.x.z.z.z.j.j.j.l.U.T.T.Y.D.S.S.S.B.B.B.B.N.N.N.N.c.c.x.n.XX@X@X.Xp.r.t.u.T.W.E.T.j.g.g.h.n.m.m.n.k.j.j.k.F.G.G.G.",
"f.f.f.g.V.C.C.V.j.h.h.h.k.k.k.z.I.Y.Y.U.S.A.A.A.B.B.B.B.N.N.N.N.v.v.c.m.+X%X%XOXi.e.r.u.E.~.!.W.f.a.s.d.b.n.n.n.j.j.j.k.J.K.K.K.",
"f.f.f.g.V.C.C.V.k.j.j.j.k.k.k.z.I.Y.Y.U.S.A.A.A.B.B.B.B.N.N.N.N.v.v.c.m.OX$X$XoXi.e.r.u.R.!.Q.E.g.s.d.f.b.n.n.n.j.j.j.k.H.J.J.J.",
"f.f.f.g.V.C.C.V.k.j.j.j.k.k.k.z.I.Y.Y.U.S.A.A.A.B.B.B.B.N.N.N.N.v.v.c.m.OX$X$XoXi.e.r.u.R.!.Q.E.g.s.d.f.b.n.n.n.j.j.j.k.H.J.J.J."
};
